<svg xmlns="http://www.w3.org/2000/svg" viewBox="0 0 512 512" width="100%" height="100%">
  <defs>
    <linearGradient id="bg" x1="0%" y1="0%" x2="100%" y2="100%">
      <stop offset="0%" stop-color="#020617" />
      <stop offset="100%" stop-color="#0F172A" />
    </linearGradient>
    
    <linearGradient id="titanGrad" x1="0%" y1="0%" x2="100%" y2="100%">
      <stop offset="0%" stop-color="#8B5CF6" />
      <stop offset="100%" stop-color="#06B6D4" />
    </linearGradient>

    <filter id="glow" x="-20%" y="-20%" width="140%" height="140%">
      <feGaussianBlur stdDeviation="8" result="blur" />
      <feComposite in="SourceGraphic" in2="blur" operator="over" />
    </filter>
  </defs>

  <rect width="512" height="512" fill="url(#bg)" />

  <line x1="0" y1="256" x2="512" y2="256" stroke="#1E293B" stroke-width="2" />
  <line x1="256" y1="0" x2="256" y2="512" stroke="#1E293B" stroke-width="2" />

  <g filter="url(#glow)">
    <path d="M 136 156 H 376 A 12 12 0 0 1 388 168 V 216 A 12 12 0 0 1 376 228 H 296 V 344 A 12 12 0 0 1 284 356 H 228 A 12 12 0 0 1 216 344 V 228 H 136 A 12 12 0 0 1 124 216 V 168 A 12 12 0 0 1 136 156 Z" 
          fill="url(#titanGrad)" />
  </g>

  <circle cx="256" cy="110" r="10" fill="#22D3EE" filter="url(#glow)"/>
  <circle cx="256" cy="402" r="10" fill="#8B5CF6" filter="url(#glow)"/>
</svg>
